<svg xmlns="http://www.w3.org/2000/svg" viewBox="0 0 700 320" fill="none">
  <defs>
    <linearGradient id="cbg" x1="0%" y1="0%" x2="100%" y2="100%">
      <stop offset="0%" style="stop-color:#0f0f23" />
      <stop offset="100%" style="stop-color:#1a1a3e" />
    </linearGradient>
    <linearGradient id="bar-runit" x1="0%" y1="0%" x2="0%" y2="100%">
      <stop offset="0%" style="stop-color:#ff6b35" />
      <stop offset="100%" style="stop-color:#cc4400" />
    </linearGradient>
    <linearGradient id="bar-llama" x1="0%" y1="0%" x2="0%" y2="100%">
      <stop offset="0%" style="stop-color:#4ecdc4" />
      <stop offset="100%" style="stop-color:#2ea89e" />
    </linearGradient>
  </defs>
  
  <rect width="700" height="320" rx="12" fill="url(#cbg)"/>
  
  <!-- Title -->
  <text x="350" y="30" text-anchor="middle" font-family="SF Pro Display, Arial" font-size="16" font-weight="700" fill="#e0e0e0">Per-Position Top-1 Token Accuracy vs llama.cpp</text>
  <text x="350" y="48" text-anchor="middle" font-family="SF Mono, monospace" font-size="11" fill="#8888bb">Qwen2.5-0.5B Q8_0 · 15 prompt tokens · greedy decode</text>
  
  <!-- Chart area -->
  <!-- Y axis -->
  <line x1="60" y1="65" x2="60" y2="260" stroke="#333355" stroke-width="1"/>
  <!-- X axis -->
  <line x1="60" y1="260" x2="670" y2="260" stroke="#333355" stroke-width="1"/>
  
  <!-- Bars — 15 positions, all matching -->
  <!-- Each position: x = 65 + pos*40, width=35 -->
  <!-- Green bars (match) at full height -->
  <rect x="67" y="80" width="35" height="180" rx="3" fill="#22c55e" opacity="0.85"/>
  <rect x="107" y="80" width="35" height="180" rx="3" fill="#22c55e" opacity="0.85"/>
  <rect x="147" y="80" width="35" height="180" rx="3" fill="#22c55e" opacity="0.85"/>
  <rect x="187" y="80" width="35" height="180" rx="3" fill="#22c55e" opacity="0.85"/>
  <rect x="227" y="80" width="35" height="180" rx="3" fill="#22c55e" opacity="0.85"/>
  <rect x="267" y="80" width="35" height="180" rx="3" fill="#22c55e" opacity="0.85"/>
  <rect x="307" y="80" width="35" height="180" rx="3" fill="#22c55e" opacity="0.85"/>
  <rect x="347" y="80" width="35" height="180" rx="3" fill="#22c55e" opacity="0.85"/>
  <rect x="387" y="80" width="35" height="180" rx="3" fill="#22c55e" opacity="0.85"/>
  <rect x="427" y="80" width="35" height="180" rx="3" fill="#22c55e" opacity="0.85"/>
  <rect x="467" y="80" width="35" height="180" rx="3" fill="#22c55e" opacity="0.85"/>
  <rect x="507" y="80" width="35" height="180" rx="3" fill="#22c55e" opacity="0.85"/>
  <rect x="547" y="80" width="35" height="180" rx="3" fill="#22c55e" opacity="0.85"/>
  <rect x="587" y="80" width="35" height="180" rx="3" fill="#22c55e" opacity="0.85"/>
  <rect x="627" y="80" width="35" height="180" rx="3" fill="#22c55e" opacity="0.85"/>
  
  <!-- Checkmarks -->
  <text x="84" y="170" text-anchor="middle" font-size="18" fill="white">✓</text>
  <text x="124" y="170" text-anchor="middle" font-size="18" fill="white">✓</text>
  <text x="164" y="170" text-anchor="middle" font-size="18" fill="white">✓</text>
  <text x="204" y="170" text-anchor="middle" font-size="18" fill="white">✓</text>
  <text x="244" y="170" text-anchor="middle" font-size="18" fill="white">✓</text>
  <text x="284" y="170" text-anchor="middle" font-size="18" fill="white">✓</text>
  <text x="324" y="170" text-anchor="middle" font-size="18" fill="white">✓</text>
  <text x="364" y="170" text-anchor="middle" font-size="18" fill="white">✓</text>
  <text x="404" y="170" text-anchor="middle" font-size="18" fill="white">✓</text>
  <text x="444" y="170" text-anchor="middle" font-size="18" fill="white">✓</text>
  <text x="484" y="170" text-anchor="middle" font-size="18" fill="white">✓</text>
  <text x="524" y="170" text-anchor="middle" font-size="18" fill="white">✓</text>
  <text x="564" y="170" text-anchor="middle" font-size="18" fill="white">✓</text>
  <text x="604" y="170" text-anchor="middle" font-size="18" fill="white">✓</text>
  <text x="644" y="170" text-anchor="middle" font-size="18" fill="white">✓</text>
  
  <!-- Position labels -->
  <text x="84" y="278" text-anchor="middle" font-family="SF Mono, monospace" font-size="9" fill="#8888bb">0</text>
  <text x="124" y="278" text-anchor="middle" font-family="SF Mono, monospace" font-size="9" fill="#8888bb">1</text>
  <text x="164" y="278" text-anchor="middle" font-family="SF Mono, monospace" font-size="9" fill="#8888bb">2</text>
  <text x="204" y="278" text-anchor="middle" font-family="SF Mono, monospace" font-size="9" fill="#8888bb">3</text>
  <text x="244" y="278" text-anchor="middle" font-family="SF Mono, monospace" font-size="9" fill="#8888bb">4</text>
  <text x="284" y="278" text-anchor="middle" font-family="SF Mono, monospace" font-size="9" fill="#8888bb">5</text>
  <text x="324" y="278" text-anchor="middle" font-family="SF Mono, monospace" font-size="9" fill="#8888bb">6</text>
  <text x="364" y="278" text-anchor="middle" font-family="SF Mono, monospace" font-size="9" fill="#8888bb">7</text>
  <text x="404" y="278" text-anchor="middle" font-family="SF Mono, monospace" font-size="9" fill="#8888bb">8</text>
  <text x="444" y="278" text-anchor="middle" font-family="SF Mono, monospace" font-size="9" fill="#8888bb">9</text>
  <text x="484" y="278" text-anchor="middle" font-family="SF Mono, monospace" font-size="9" fill="#8888bb">10</text>
  <text x="524" y="278" text-anchor="middle" font-family="SF Mono, monospace" font-size="9" fill="#8888bb">11</text>
  <text x="564" y="278" text-anchor="middle" font-family="SF Mono, monospace" font-size="9" fill="#8888bb">12</text>
  <text x="604" y="278" text-anchor="middle" font-family="SF Mono, monospace" font-size="9" fill="#8888bb">13</text>
  <text x="644" y="278" text-anchor="middle" font-family="SF Mono, monospace" font-size="9" fill="#8888bb">14</text>
  
  <!-- Axis labels -->
  <text x="365" y="300" text-anchor="middle" font-family="SF Pro Display, Arial" font-size="12" fill="#8888bb">Token Position</text>
  
  <!-- Score badge -->
  <rect x="20" y="65" width="35" height="20" rx="4" fill="#22c55e30"/>
  <text x="37" y="79" text-anchor="middle" font-family="SF Mono, monospace" font-size="10" font-weight="bold" fill="#22c55e">15/15</text>
  
  <!-- Legend -->
  <rect x="490" y="290" width="12" height="12" rx="2" fill="#22c55e" opacity="0.85"/>
  <text x="508" y="300" font-family="SF Pro Display, Arial" font-size="11" fill="#aaaacc">= Top-1 token matches llama.cpp</text>
</svg>
