<svg xmlns="http://www.w3.org/2000/svg" viewBox="0 0 700 340" fill="none">
  <defs>
    <linearGradient id="cbg" x1="0%" y1="0%" x2="100%" y2="100%">
      <stop offset="0%" style="stop-color:#0f0f23"/>
      <stop offset="100%" style="stop-color:#1a1a3e"/>
    </linearGradient>
  </defs>
  <rect width="700" height="340" rx="12" fill="url(#cbg)"/>

  <text x="350" y="28" text-anchor="middle" font-family="SF Pro Display,Arial" font-size="16" font-weight="700" fill="#e0e0e0">Output Quality — Token-Perfect Match with llama.cpp</text>
  <text x="350" y="46" text-anchor="middle" font-family="SF Mono,monospace" font-size="11" fill="#8888bb">Qwen2.5-0.5B Q8_0 · 233 tok/sec · greedy decode</text>

  <!-- 15 green bars for position accuracy -->
  <line x1="60" y1="260" x2="670" y2="260" stroke="#333355" stroke-width="1"/>

  <rect x="67"  y="80" width="35" height="180" rx="3" fill="#22c55e" opacity="0.85"/>
  <rect x="107" y="80" width="35" height="180" rx="3" fill="#22c55e" opacity="0.85"/>
  <rect x="147" y="80" width="35" height="180" rx="3" fill="#22c55e" opacity="0.85"/>
  <rect x="187" y="80" width="35" height="180" rx="3" fill="#22c55e" opacity="0.85"/>
  <rect x="227" y="80" width="35" height="180" rx="3" fill="#22c55e" opacity="0.85"/>
  <rect x="267" y="80" width="35" height="180" rx="3" fill="#22c55e" opacity="0.85"/>
  <rect x="307" y="80" width="35" height="180" rx="3" fill="#22c55e" opacity="0.85"/>
  <rect x="347" y="80" width="35" height="180" rx="3" fill="#22c55e" opacity="0.85"/>
  <rect x="387" y="80" width="35" height="180" rx="3" fill="#22c55e" opacity="0.85"/>
  <rect x="427" y="80" width="35" height="180" rx="3" fill="#22c55e" opacity="0.85"/>
  <rect x="467" y="80" width="35" height="180" rx="3" fill="#22c55e" opacity="0.85"/>
  <rect x="507" y="80" width="35" height="180" rx="3" fill="#22c55e" opacity="0.85"/>
  <rect x="547" y="80" width="35" height="180" rx="3" fill="#22c55e" opacity="0.85"/>
  <rect x="587" y="80" width="35" height="180" rx="3" fill="#22c55e" opacity="0.85"/>
  <rect x="627" y="80" width="35" height="180" rx="3" fill="#22c55e" opacity="0.85"/>

  <!-- Checkmarks -->
  <text x="84"  y="170" text-anchor="middle" font-size="18" fill="white">✓</text>
  <text x="124" y="170" text-anchor="middle" font-size="18" fill="white">✓</text>
  <text x="164" y="170" text-anchor="middle" font-size="18" fill="white">✓</text>
  <text x="204" y="170" text-anchor="middle" font-size="18" fill="white">✓</text>
  <text x="244" y="170" text-anchor="middle" font-size="18" fill="white">✓</text>
  <text x="284" y="170" text-anchor="middle" font-size="18" fill="white">✓</text>
  <text x="324" y="170" text-anchor="middle" font-size="18" fill="white">✓</text>
  <text x="364" y="170" text-anchor="middle" font-size="18" fill="white">✓</text>
  <text x="404" y="170" text-anchor="middle" font-size="18" fill="white">✓</text>
  <text x="444" y="170" text-anchor="middle" font-size="18" fill="white">✓</text>
  <text x="484" y="170" text-anchor="middle" font-size="18" fill="white">✓</text>
  <text x="524" y="170" text-anchor="middle" font-size="18" fill="white">✓</text>
  <text x="564" y="170" text-anchor="middle" font-size="18" fill="white">✓</text>
  <text x="604" y="170" text-anchor="middle" font-size="18" fill="white">✓</text>
  <text x="644" y="170" text-anchor="middle" font-size="18" fill="white">✓</text>

  <!-- Position labels -->
  <text x="84"  y="278" text-anchor="middle" font-family="SF Mono,monospace" font-size="9" fill="#8888bb">0</text>
  <text x="124" y="278" text-anchor="middle" font-family="SF Mono,monospace" font-size="9" fill="#8888bb">1</text>
  <text x="164" y="278" text-anchor="middle" font-family="SF Mono,monospace" font-size="9" fill="#8888bb">2</text>
  <text x="204" y="278" text-anchor="middle" font-family="SF Mono,monospace" font-size="9" fill="#8888bb">3</text>
  <text x="244" y="278" text-anchor="middle" font-family="SF Mono,monospace" font-size="9" fill="#8888bb">4</text>
  <text x="284" y="278" text-anchor="middle" font-family="SF Mono,monospace" font-size="9" fill="#8888bb">5</text>
  <text x="324" y="278" text-anchor="middle" font-family="SF Mono,monospace" font-size="9" fill="#8888bb">6</text>
  <text x="364" y="278" text-anchor="middle" font-family="SF Mono,monospace" font-size="9" fill="#8888bb">7</text>
  <text x="404" y="278" text-anchor="middle" font-family="SF Mono,monospace" font-size="9" fill="#8888bb">8</text>
  <text x="444" y="278" text-anchor="middle" font-family="SF Mono,monospace" font-size="9" fill="#8888bb">9</text>
  <text x="484" y="278" text-anchor="middle" font-family="SF Mono,monospace" font-size="9" fill="#8888bb">10</text>
  <text x="524" y="278" text-anchor="middle" font-family="SF Mono,monospace" font-size="9" fill="#8888bb">11</text>
  <text x="564" y="278" text-anchor="middle" font-family="SF Mono,monospace" font-size="9" fill="#8888bb">12</text>
  <text x="604" y="278" text-anchor="middle" font-family="SF Mono,monospace" font-size="9" fill="#8888bb">13</text>
  <text x="644" y="278" text-anchor="middle" font-family="SF Mono,monospace" font-size="9" fill="#8888bb">14</text>

  <text x="365" y="298" text-anchor="middle" font-family="SF Pro Display,Arial" font-size="12" fill="#8888bb">Token Position</text>

  <!-- Score badge -->
  <rect x="15" y="65" width="42" height="22" rx="6" fill="#22c55e30" stroke="#22c55e" stroke-width="1"/>
  <text x="36" y="81" text-anchor="middle" font-family="SF Mono,monospace" font-size="11" font-weight="bold" fill="#22c55e">15/15</text>

  <!-- Footer -->
  <rect x="60" y="308" width="580" height="22" rx="6" fill="#ffffff06"/>
  <text x="350" y="323" text-anchor="middle" font-family="SF Mono,monospace" font-size="9" fill="#888">Every token identical to llama.cpp · f32 precision pipeline · 233 tok/sec with 3.5× speedup</text>
</svg>
